<?xml version="1.0" standalone="no"?><!DOCTYPE svg PUBLIC "-//W3C//DTD SVG 1.1//EN" "http://www.w3.org/Graphics/SVG/1.1/DTD/svg11.dtd"><svg class="icon" width="200px" height="200.00px" viewBox="0 0 1024 1024" version="1.1" xmlns="http://www.w3.org/2000/svg"><path d="M810.666667 981.333333H213.333333V213.333333l170.666667-170.666666h426.666667z" fill="#D9DEE2" /><path d="M341.333333 170.666667V145.664c0-38.634667 15.338667-75.669333 42.666667-102.997333l-170.666667 170.666666a145.621333 145.621333 0 0 1 102.997334-42.666666H341.333333zM512 597.333333h384v298.666667H512z" fill="#FF8B00" /><path d="M832 789.333333H576a42.666667 42.666667 0 1 1 0-85.333333h256a42.666667 42.666667 0 1 1 0 85.333333z" fill="#FFFFFF" /><path d="M576 746.666667m-21.333333 0a21.333333 21.333333 0 1 0 42.666666 0 21.333333 21.333333 0 1 0-42.666666 0Z" fill="#3D3D3D" /><path d="M768 746.666667m-21.333333 0a21.333333 21.333333 0 1 0 42.666666 0 21.333333 21.333333 0 1 0-42.666666 0Z" fill="#3D3D3D" /><path d="M832 746.666667m-21.333333 0a21.333333 21.333333 0 1 0 42.666666 0 21.333333 21.333333 0 1 0-42.666666 0Z" fill="#3D3D3D" /><path d="M704 746.666667m-21.333333 0a21.333333 21.333333 0 1 0 42.666666 0 21.333333 21.333333 0 1 0-42.666666 0Z" fill="#3D3D3D" /><path d="M640 746.666667m-21.333333 0a21.333333 21.333333 0 1 0 42.666666 0 21.333333 21.333333 0 1 0-42.666666 0Z" fill="#3D3D3D" /><path d="M704 426.666667a106.666667 106.666667 0 0 0-106.666667 106.666666v64h42.666667v-64a64 64 0 1 1 128 0v64h42.666667v-64a106.666667 106.666667 0 0 0-106.666667-106.666666z" fill="#3D3D3D" /></svg>