<?xml version="1.0" standalone="no"?><!DOCTYPE svg PUBLIC "-//W3C//DTD SVG 1.1//EN" "http://www.w3.org/Graphics/SVG/1.1/DTD/svg11.dtd"><svg t="1625191367461" class="icon" viewBox="0 0 1024 1024" version="1.1" xmlns="http://www.w3.org/2000/svg" p-id="3793" xmlns:xlink="http://www.w3.org/1999/xlink" width="200" height="200"><defs><style type="text/css"></style></defs><path d="M73.216 877.568V0h877.568v877.568H73.216z m0 146.432v-146.432H512L73.216 1024z m877.568 0L512 877.568h438.784V1024z" fill="#FF0000" p-id="3794"></path><path d="M414.208 489.472c-2.048-14.848-5.632-29.696-10.24-44.032v44.032c-1.536 24.064 0 76.8 4.096 158.208 1.536 19.968-5.12 32.256-19.968 35.84-12.288 1.024-24.064 3.072-35.84 6.144-21.504 6.656-29.184-5.12-24.064-35.84 1.536-30.72 2.56-58.88 4.096-83.968 0-13.312 0.512-27.136 2.048-41.984-18.432 18.432-39.424 35.328-61.952 50.176-5.12 4.096-9.216 5.12-11.776 4.096-1.536-1.536-0.512-4.608 2.048-10.24 39.936-64 62.464-124.928 68.096-181.76h-22.016c-14.848 0-24.576 0.512-30.208 2.048-5.12 2.56-8.704 2.048-9.728-2.048-3.584-4.608-6.656-10.24-8.192-15.872-2.56-4.096-1.536-5.12 4.096-4.096 14.848 2.56 32.256 4.096 52.224 4.096h17.92V337.92c-4.096 9.216-10.752 14.848-19.968 15.872-25.088 5.12-38.912-5.12-39.936-32.256 0-24.064-2.56-46.08-8.192-66.048-1.536-4.096-1.536-6.656 0-8.192s4.096-2.048 8.192-2.048c30.72 13.312 50.688 31.232 59.904 54.272v-10.24c-1.536-14.848-2.048-30.208-2.048-46.08-1.024-11.776-2.56-24.064-4.096-35.84-2.56-14.848 2.048-20.48 13.824-17.92 22.528 2.56 46.08 6.656 70.144 11.776 11.776 4.096 13.312 11.264 4.096 22.016-9.216 6.656-13.312 14.848-11.776 24.064V341.504c10.752-31.744 17.92-62.464 22.016-92.16 1.536-10.752 7.168-13.312 17.92-8.192 6.656 2.56 15.872 7.168 28.16 13.824 2.56 1.536 5.12 2.048 8.192 2.048h76.8c-1.536-15.872-2.56-31.744-4.096-48.128-4.096-14.848 2.048-20.48 17.92-17.92 10.752 1.536 27.136 4.096 50.176 8.192 4.096 1.536 9.216 2.048 15.872 2.048 9.216 5.12 8.704 11.776-2.048 19.968-5.12 4.096-7.168 9.728-6.144 17.92v17.92h30.208c18.432-24.064 31.232-35.84 37.888-35.84 6.656 0 23.552 13.312 50.176 39.936 2.56 8.192 0.512 11.776-6.144 11.776H629.76v46.08h13.824c19.968-26.624 31.232-38.912 33.792-35.84 8.192 0 23.552 12.8 46.08 37.888 2.56 4.096 3.584 7.168 2.048 10.24-1.536 1.536-3.072 2.048-6.144 2.048h-90.112v48.128h46.08c18.432-25.088 30.72-36.864 35.84-33.792 9.216 2.56 24.064 14.848 44.032 35.84 2.56 4.096 3.072 7.168 2.048 10.24 0 2.56-2.048 4.096-6.144 4.096h-236.032c-13.312 0-23.552 0.512-30.208 2.048-4.096 1.536-7.168 0-9.728-4.096-1.536-1.536-3.072-3.584-4.096-6.144h-68.096v35.84c35.84 8.192 59.392 21.504 70.144 39.936 8.192 24.064 3.584 41.984-13.824 54.272-26.112 12.288-41.472 2.048-45.056-30.208z m67.584 92.16V471.552c0-24.064-0.512-40.448-2.048-50.176-1.536-13.312 4.096-17.92 15.872-13.824 9.216 4.096 24.064 10.24 44.032 17.92 5.12 2.56 11.264 4.608 17.92 6.144l2.048 2.048h72.192c9.216-14.848 17.408-23.552 24.064-26.112 25.088 8.192 49.152 22.016 72.192 41.984 4.096 9.216 2.048 15.36-6.144 17.92-9.216 6.656-13.312 12.8-11.776 17.92v64c-1.536 34.816-0.512 61.952 2.048 81.92 0 24.064-6.656 38.912-19.968 44.032-14.848 7.168-30.208 12.288-46.08 15.872-15.872 1.536-26.112-3.584-30.208-13.824-1.536-17.408-10.752-29.184-28.16-35.84-10.752-6.656-15.36-10.752-13.824-11.776 0-5.12 6.656-6.656 19.968-4.096 32.256 8.192 46.08-6.656 41.984-44.032v-17.92h-83.968v90.112c0 14.848-4.608 23.552-13.824 26.112-13.312 3.072-26.624 5.632-39.936 8.192-13.312 2.56-19.456-4.096-17.92-19.968 1.024-27.136 1.536-55.808 1.536-86.528z m0-205.824c0 2.56 0.512 4.096 2.048 4.096 11.776 2.56 26.112 3.584 41.984 2.048h32.256V333.824h-44.032c-8.192 1.536-17.92 2.56-30.208 4.096-4.096 1.536-6.656 0-8.192-4.096-4.096-2.56-6.656-7.168-8.192-13.824-2.56-4.096-2.048-5.12 2.048-4.096 15.872 2.56 33.792 4.096 54.272 4.096h33.792v-46.08h-52.224c4.096 8.192 0.512 13.312-9.728 15.872-9.216 0-17.92 3.584-24.064 10.24-25.088 24.064-48.128 42.496-68.096 55.808V373.76h8.192c14.848-19.968 24.064-30.208 28.16-30.208 8.192 1.536 22.016 12.288 41.984 32.256z m70.144 130.048v44.032h83.968v-44.032h-83.968z m83.968-58.368h-75.776c-6.656 4.096-9.216 10.24-8.192 17.92v24.064h83.968v-41.984z" fill="#FFFFFF" p-id="3795"></path></svg>