<?xml version="1.0" standalone="no"?><!DOCTYPE svg PUBLIC "-//W3C//DTD SVG 1.1//EN" "http://www.w3.org/Graphics/SVG/1.1/DTD/svg11.dtd"><svg class="icon" width="200px" height="200.00px" viewBox="0 0 1024 1024" version="1.1" xmlns="http://www.w3.org/2000/svg"><path fill="#333333" d="M605.555 383.998l233.656-233.656 33.942 33.941L639.496 417.94zM650.68 120.68h252.05v48H650.68zM854.82 120.77h48v252.05h-48zM150.34 184.786l33.94-33.941L417.938 384.5l-33.941 33.941zM120.68 121.27h48v252.05h-48zM120.77 121.18h252.05v48H120.77zM150.847 839.716L384 606.56l33.941 33.942-233.154 233.154zM121.27 855.32h252.05v48H121.27zM121.18 651.18h48v252.05h-48zM605.378 638.82l33.94-33.942 234.336 234.335-33.941 33.942zM855.32 650.68h48v252.05h-48zM651.18 854.82h252.05v48H651.18z" /></svg>