<?xml version="1.0" standalone="no"?><!DOCTYPE svg PUBLIC "-//W3C//DTD SVG 1.1//EN" "http://www.w3.org/Graphics/SVG/1.1/DTD/svg11.dtd"><svg class="icon" width="200px" height="200.00px" viewBox="0 0 1024 1024" version="1.1" xmlns="http://www.w3.org/2000/svg"><path fill="#333333" d="M949.6 142.4 696 396l108 0c26.4 0 48 21.6 48 48 0 26.4-21.6 48-48 48l-224 0c-26.4 0-48-21.6-48-48l0-224c0-26.4 21.6-48 48-48 26.4 0 48 21.6 48 48l0 108.8 254.4-254.4c18.4-18.4 48.8-18.4 68 0C968.8 92.8 968.8 123.2 949.6 142.4zM452 844c-26.4 0-48-21.6-48-48L404 688l-253.6 253.6c-18.4 18.4-48.8 18.4-68 0-18.4-18.4-18.4-48.8 0-68l254.4-254.4L228 619.2c-26.4 0-48-21.6-48-48s21.6-48 48-48l224 0c26.4 0 48 21.6 48 48l0 224C500 822.4 478.4 844 452 844z" /></svg>