<?xml version="1.0" standalone="no"?><!DOCTYPE svg PUBLIC "-//W3C//DTD SVG 1.1//EN" "http://www.w3.org/Graphics/SVG/1.1/DTD/svg11.dtd"><svg class="icon" width="200px" height="200.00px" viewBox="0 0 1024 1024" version="1.1" xmlns="http://www.w3.org/2000/svg"><path fill="#333333" d="M512.2 736.1S266.2 886.9 251 874.6c-15.2-12.3 49.9-293.3 49.9-293.3S80.5 396.3 89.5 373.6c9-22.7 292-42.8 292-42.8S486.7 63.9 512.2 63.9c25.5 0 130.6 266.8 130.6 266.8S927 351 934.9 373.6c7.8 22.6-211.3 207.7-211.3 207.7s2.7 18 5.9 31.3c0.2 0.9-102.3 3.2-186.3 0-44.1-1.7-97.2-10-97.2-10l243.2-174.9s-88-16-176.9-19.2c-97.4-3.5-197.1 5.9-211.3 9.6-8.9 2.3 63 2.1 145 9.6 57.4 5.2 133 19.2 133 19.2L335.7 629.5s48.6 8.7 221.1 4.9 231.4-17.2 231.4-17c0.1 0.5-11.7 6.5-24.6 9-14.1 2.7-28.1 7.4-27.9 8 18.5 81 50.1 227.4 37.7 240.1-17.1 17.6-261.2-138.4-261.2-138.4z"  /></svg>