<svg viewBox="0 0 1024 1024" xmlns="http://www.w3.org/2000/svg" width="25" height="25">
    <path d="M234.24 512a277.76 277.76 0 1 0 555.52 0 277.76 277.76 0 1 0-555.52 0zM512 187.733a42.667 42.667 0 0 1-42.667-42.666v-102.4a42.667 42.667 0 0 1 85.334 0v102.826A42.667 42.667 0 0 1 512 187.733zm-258.987 107.52a42.667 42.667 0 0 1-29.866-12.373l-72.96-73.387a42.667 42.667 0 0 1 59.306-59.306l73.387 72.96a42.667 42.667 0 0 1 0 59.733 42.667 42.667 0 0 1-29.867 12.373zm-107.52 259.414H42.667a42.667 42.667 0 0 1 0-85.334h102.826a42.667 42.667 0 0 1 0 85.334zm34.134 331.946a42.667 42.667 0 0 1-29.44-72.106l72.96-73.387a42.667 42.667 0 0 1 59.733 59.733l-73.387 73.387a42.667 42.667 0 0 1-29.866 12.373zM512 1024a42.667 42.667 0 0 1-42.667-42.667V878.507a42.667 42.667 0 0 1 85.334 0v102.826A42.667 42.667 0 0 1 512 1024zm332.373-137.387a42.667 42.667 0 0 1-29.866-12.373l-73.387-73.387a42.667 42.667 0 0 1 0-59.733 42.667 42.667 0 0 1 59.733 0l72.96 73.387a42.667 42.667 0 0 1-29.44 72.106zm136.96-331.946H878.507a42.667 42.667 0 1 1 0-85.334h102.826a42.667 42.667 0 0 1 0 85.334zM770.987 295.253a42.667 42.667 0 0 1-29.867-12.373 42.667 42.667 0 0 1 0-59.733l73.387-72.96a42.667 42.667 0 1 1 59.306 59.306l-72.96 73.387a42.667 42.667 0 0 1-29.866 12.373z"></path>
</svg>
