<?xml version="1.0" standalone="no"?><!DOCTYPE svg PUBLIC "-//W3C//DTD SVG 1.1//EN" "http://www.w3.org/Graphics/SVG/1.1/DTD/svg11.dtd"><svg t="1625191392923" class="icon" viewBox="0 0 1024 1024" version="1.1" xmlns="http://www.w3.org/2000/svg" p-id="4193" xmlns:xlink="http://www.w3.org/1999/xlink" width="200" height="200"><defs><style type="text/css"></style></defs><path d="M1024.001 481.71899999L541.771-0.001 0.00099999-0.001l1024.00000001 1024.00000001 0-542.28000002z" fill="#F36D61" p-id="4194"></path><path d="M575.721 221.799l-51.81-52.63-149.2 152.52-38.86-39.37 149.2-152.63-51.51-52.42999999 31.49-32.28000001 141.9 144.54-31.18 32.28-0.03 0z m-45.75 78.54a136.476 136.476 0 0 1 93.93-45.34c71.19 0.77 128.57 58.55 128.84 129.74a137.103 137.103 0 0 1-42.6 91.9 135.291 135.291 0 0 1-93.11 44.92999999c-34.45 0.92-67.58-13.28-90.67-38.85999999a121.515 121.515 0 0 1-37.66-90.68 134.305 134.305 0 0 1 41.27-91.72l0 0.03z m42.8 39.17000001a99.88 99.88 0 0 0-30.16 56.99 60.695 60.695 0 0 0 18.13 52.73999999 59.168 59.168 0 0 0 51.2 19.53 95.667 95.667 0 0 0 55.65-31.18 105.844 105.844 0 0 0 32.38-58.19c3.74-35.55-22.05-67.39-57.59-71.13-0.04 0-0.07-0.01-0.11-0.01-4.31-0.46-8.65-0.46-12.95 0a96.428 96.428 0 0 0-56.55 31.25000001z m189.88000001 248.97999999l-62.95000001 64.36-38.6-39.27 180.76-184.7 62.34 63.46c45.04 45.83999999 48.45 88.29 10.24 127.33a76.293 76.293 0 0 1-64.77 24.7 104.998 104.998 0 0 1-67-35.64l-20.15-20.25 0.13 0z m87.85999999-89.77999999l-58.28999999 59.61999999 16.68999998 17c22.66 23.07 43.82 24.49 63.46000001 4.25 19.12000001-19.74 17.61-40.96-4.76000001-63.77l-17.09999999-17.09999999z" fill="#FFFFFF" p-id="4195"></path></svg>