<?xml version="1.0" standalone="no"?><!DOCTYPE svg PUBLIC "-//W3C//DTD SVG 1.1//EN" "http://www.w3.org/Graphics/SVG/1.1/DTD/svg11.dtd"><svg t="1625191380496" class="icon" viewBox="0 0 1024 1024" version="1.1" xmlns="http://www.w3.org/2000/svg" p-id="3924" xmlns:xlink="http://www.w3.org/1999/xlink" width="200" height="200"><defs><style type="text/css"></style></defs><path d="M481.71899999-0.001L-0.001 482.229-0.001 1023.99900001l1024.00000001-1024.00000001-542.28000002 0z" fill="#F36D61" p-id="3925"></path><path d="M221.799 448.279l-52.63 51.81 152.52 149.2-39.37 38.86-152.63-149.2-52.42999999 51.51-32.28000001-31.49 144.54-141.9 32.28 31.18 0 0.03z m78.54 45.75a136.476 136.476 0 0 1-45.34-93.93c0.77-71.19 58.55-128.57 129.74-128.84a137.103 137.103 0 0 1 91.9 42.6 135.291 135.291 0 0 1 44.92999999 93.11c0.92 34.45-13.28 67.58-38.85999999 90.67a121.515 121.515 0 0 1-90.68 37.66 134.305 134.305 0 0 1-91.72-41.27l0.03 0z m39.17000001-42.8a99.88 99.88 0 0 0 56.99 30.16 60.695 60.695 0 0 0 52.73999999-18.13 59.168 59.168 0 0 0 19.53-51.2 95.667 95.667 0 0 0-31.18-55.65 105.844 105.844 0 0 0-58.19-32.38c-35.55-3.74-67.39 22.05-71.13 57.59 0 0.04-0.01 0.07-0.01 0.11-0.46 4.31-0.46 8.65 0 12.95a96.428 96.428 0 0 0 31.25000001 56.55z m248.97999999-189.88000001l64.36 62.95000001-39.27 38.6-184.7-180.76 63.46-62.34c45.83999999-45.04 88.29-48.45 127.33-10.24a76.293 76.293 0 0 1 24.7 64.77 104.998 104.998 0 0 1-35.64 67l-20.25 20.15 0-0.13z m-89.77999999-87.85999999l59.61999999 58.28999999 17-16.68999998c23.07-22.66 24.49-43.82 4.25-63.46000001-19.74-19.12000001-40.96-17.61-63.77 4.76000001l-17.09999999 17.09999999z" fill="#FFFFFF" p-id="3926"></path></svg>